<mxfile host="5e6f8fc9-1ab3-4521-9fa2-815d16888a8c" modified="2020-08-02T17:57:47.011Z" agent="5.0 (Windows NT 10.0; Win64; x64) AppleWebKit/537.36 (KHTML, like Gecko) Code/1.47.3 Chrome/78.0.3904.130 Electron/7.3.2 Safari/537.36" etag="FZKRBrfIj_iDL-91m0mh" version="13.1.3">
    <diagram id="6hGFLwfOUW9BJ-s0fimq" name="Page-1">
        <mxGraphModel dx="604" dy="468" grid="1" gridSize="10" guides="1" tooltips="1" connect="1" arrows="1" fold="1" page="1" pageScale="1" pageWidth="1654" pageHeight="2336" math="0" shadow="0">
            <root>
                <mxCell id="0"/>
                <mxCell id="1" parent="0"/>
                <mxCell id="4" value="" style="endArrow=classic;html=1;exitX=0.25;exitY=1;exitDx=0;exitDy=0;entryX=0.5;entryY=0;entryDx=0;entryDy=0;" parent="1" source="26" target="35" edge="1">
                    <mxGeometry width="50" height="50" relative="1" as="geometry">
                        <mxPoint x="510" y="860" as="sourcePoint"/>
                        <mxPoint x="370" y="550" as="targetPoint"/>
                    </mxGeometry>
                </mxCell>
                <mxCell id="6" value="" style="endArrow=classic;html=1;entryX=0;entryY=0.25;entryDx=0;entryDy=0;exitX=1;exitY=0.25;exitDx=0;exitDy=0;" parent="1" source="35" target="55" edge="1">
                    <mxGeometry width="50" height="50" relative="1" as="geometry">
                        <mxPoint x="590" y="790" as="sourcePoint"/>
                        <mxPoint x="640" y="740" as="targetPoint"/>
                    </mxGeometry>
                </mxCell>
                <mxCell id="9" value="" style="endArrow=classic;html=1;exitX=0.25;exitY=0;exitDx=0;exitDy=0;entryX=0.75;entryY=1;entryDx=0;entryDy=0;" parent="1" source="55" target="68" edge="1">
                    <mxGeometry width="50" height="50" relative="1" as="geometry">
                        <mxPoint x="590" y="790" as="sourcePoint"/>
                        <mxPoint x="350" y="660" as="targetPoint"/>
                    </mxGeometry>
                </mxCell>
                <mxCell id="10" value="" style="endArrow=classic;html=1;entryX=0.25;entryY=1;entryDx=0;entryDy=0;exitX=0.5;exitY=0;exitDx=0;exitDy=0;" parent="1" source="55" target="76" edge="1">
                    <mxGeometry width="50" height="50" relative="1" as="geometry">
                        <mxPoint x="580" y="650" as="sourcePoint"/>
                        <mxPoint x="640" y="740" as="targetPoint"/>
                    </mxGeometry>
                </mxCell>
                <mxCell id="11" value="" style="endArrow=classic;html=1;entryX=0.25;entryY=0;entryDx=0;entryDy=0;exitX=0.75;exitY=1;exitDx=0;exitDy=0;" parent="1" source="26" target="68" edge="1">
                    <mxGeometry width="50" height="50" relative="1" as="geometry">
                        <mxPoint x="670" y="220" as="sourcePoint"/>
                        <mxPoint x="520" y="300" as="targetPoint"/>
                    </mxGeometry>
                </mxCell>
                <mxCell id="12" value="" style="endArrow=classic;html=1;entryX=0.25;entryY=0;entryDx=0;entryDy=0;exitX=1;exitY=0.5;exitDx=0;exitDy=0;" parent="1" source="26" target="76" edge="1">
                    <mxGeometry width="50" height="50" relative="1" as="geometry">
                        <mxPoint x="590" y="600" as="sourcePoint"/>
                        <mxPoint x="640" y="550" as="targetPoint"/>
                    </mxGeometry>
                </mxCell>
                <mxCell id="14" value="" style="endArrow=classic;html=1;exitX=0.25;exitY=0;exitDx=0;exitDy=0;entryX=0.5;entryY=1;entryDx=0;entryDy=0;" parent="1" source="35" target="42" edge="1">
                    <mxGeometry width="50" height="50" relative="1" as="geometry">
                        <mxPoint x="590" y="600" as="sourcePoint"/>
                        <mxPoint x="260" y="570" as="targetPoint"/>
                    </mxGeometry>
                </mxCell>
                <mxCell id="15" value="" style="endArrow=classic;html=1;exitX=0;exitY=0.5;exitDx=0;exitDy=0;entryX=0.5;entryY=0;entryDx=0;entryDy=0;" parent="1" source="26" target="42" edge="1">
                    <mxGeometry width="50" height="50" relative="1" as="geometry">
                        <mxPoint x="270" y="390" as="sourcePoint"/>
                        <mxPoint x="200" y="430" as="targetPoint"/>
                    </mxGeometry>
                </mxCell>
                <mxCell id="16" value="" style="endArrow=classic;html=1;" parent="1" edge="1">
                    <mxGeometry width="50" height="50" relative="1" as="geometry">
                        <mxPoint x="480" y="490" as="sourcePoint"/>
                        <mxPoint x="590" y="490" as="targetPoint"/>
                    </mxGeometry>
                </mxCell>
                <mxCell id="26" value="users" style="swimlane;" parent="1" vertex="1">
                    <mxGeometry x="280" y="150" width="190" height="190" as="geometry">
                        <mxRectangle x="530" y="330" width="90" height="23" as="alternateBounds"/>
                    </mxGeometry>
                </mxCell>
                <mxCell id="27" value="id" style="text;html=1;strokeColor=none;fillColor=none;align=left;verticalAlign=middle;whiteSpace=wrap;rounded=0;" parent="26" vertex="1">
                    <mxGeometry x="20" y="30" width="40" height="20" as="geometry"/>
                </mxCell>
                <mxCell id="28" value="username" style="text;html=1;strokeColor=none;fillColor=none;align=left;verticalAlign=middle;whiteSpace=wrap;rounded=0;" parent="26" vertex="1">
                    <mxGeometry x="20" y="50" width="170" height="20" as="geometry"/>
                </mxCell>
                <mxCell id="31" value="email" style="text;html=1;strokeColor=none;fillColor=none;align=left;verticalAlign=middle;whiteSpace=wrap;rounded=0;" parent="26" vertex="1">
                    <mxGeometry x="20" y="70" width="170" height="20" as="geometry"/>
                </mxCell>
                <mxCell id="32" value="avatar" style="text;html=1;strokeColor=none;fillColor=none;align=left;verticalAlign=middle;whiteSpace=wrap;rounded=0;" parent="26" vertex="1">
                    <mxGeometry x="20" y="90" width="170" height="20" as="geometry"/>
                </mxCell>
                <mxCell id="33" value="karma" style="text;html=1;strokeColor=none;fillColor=none;align=left;verticalAlign=middle;whiteSpace=wrap;rounded=0;" parent="26" vertex="1">
                    <mxGeometry x="20" y="110" width="170" height="20" as="geometry"/>
                </mxCell>
                <mxCell id="34" value="create_date" style="text;html=1;strokeColor=none;fillColor=none;align=left;verticalAlign=middle;whiteSpace=wrap;rounded=0;" parent="26" vertex="1">
                    <mxGeometry x="20" y="150" width="170" height="20" as="geometry"/>
                </mxCell>
                <mxCell id="87" value="password" style="text;html=1;strokeColor=none;fillColor=none;align=left;verticalAlign=middle;whiteSpace=wrap;rounded=0;" vertex="1" parent="26">
                    <mxGeometry x="20" y="130" width="170" height="20" as="geometry"/>
                </mxCell>
                <mxCell id="35" value="subreddits" style="swimlane;" parent="1" vertex="1">
                    <mxGeometry x="250" y="616" width="120" height="120" as="geometry">
                        <mxRectangle x="530" y="330" width="90" height="23" as="alternateBounds"/>
                    </mxGeometry>
                </mxCell>
                <mxCell id="36" value="id" style="text;html=1;strokeColor=none;fillColor=none;align=left;verticalAlign=middle;whiteSpace=wrap;rounded=0;" parent="35" vertex="1">
                    <mxGeometry x="20" y="30" width="40" height="20" as="geometry"/>
                </mxCell>
                <mxCell id="37" value="name" style="text;html=1;strokeColor=none;fillColor=none;align=left;verticalAlign=middle;whiteSpace=wrap;rounded=0;" parent="35" vertex="1">
                    <mxGeometry x="20" y="50" width="170" height="20" as="geometry"/>
                </mxCell>
                <mxCell id="38" value="user_id" style="text;html=1;strokeColor=none;fillColor=none;align=left;verticalAlign=middle;whiteSpace=wrap;rounded=0;" parent="35" vertex="1">
                    <mxGeometry x="20" y="70" width="170" height="20" as="geometry"/>
                </mxCell>
                <mxCell id="41" value="create_date" style="text;html=1;strokeColor=none;fillColor=none;align=left;verticalAlign=middle;whiteSpace=wrap;rounded=0;" parent="35" vertex="1">
                    <mxGeometry x="20" y="90" width="170" height="20" as="geometry"/>
                </mxCell>
                <mxCell id="42" value="subreddits_users" style="swimlane;" parent="1" vertex="1">
                    <mxGeometry x="110" y="430" width="150" height="120" as="geometry">
                        <mxRectangle x="530" y="330" width="90" height="23" as="alternateBounds"/>
                    </mxGeometry>
                </mxCell>
                <mxCell id="43" value="id" style="text;html=1;strokeColor=none;fillColor=none;align=left;verticalAlign=middle;whiteSpace=wrap;rounded=0;" parent="42" vertex="1">
                    <mxGeometry x="20" y="30" width="40" height="20" as="geometry"/>
                </mxCell>
                <mxCell id="44" value="user_id" style="text;html=1;strokeColor=none;fillColor=none;align=left;verticalAlign=middle;whiteSpace=wrap;rounded=0;" parent="42" vertex="1">
                    <mxGeometry x="20" y="50" width="170" height="20" as="geometry"/>
                </mxCell>
                <mxCell id="45" value="subreddit_id" style="text;html=1;strokeColor=none;fillColor=none;align=left;verticalAlign=middle;whiteSpace=wrap;rounded=0;" parent="42" vertex="1">
                    <mxGeometry x="20" y="70" width="170" height="20" as="geometry"/>
                </mxCell>
                <mxCell id="46" value="create_date" style="text;html=1;strokeColor=none;fillColor=none;align=left;verticalAlign=middle;whiteSpace=wrap;rounded=0;" parent="42" vertex="1">
                    <mxGeometry x="20" y="90" width="170" height="20" as="geometry"/>
                </mxCell>
                <mxCell id="55" value="posts" style="swimlane;" parent="1" vertex="1">
                    <mxGeometry x="470" y="584" width="120" height="246" as="geometry">
                        <mxRectangle x="530" y="330" width="90" height="23" as="alternateBounds"/>
                    </mxGeometry>
                </mxCell>
                <mxCell id="56" value="id" style="text;html=1;strokeColor=none;fillColor=none;align=left;verticalAlign=middle;whiteSpace=wrap;rounded=0;" parent="55" vertex="1">
                    <mxGeometry x="20" y="30" width="40" height="20" as="geometry"/>
                </mxCell>
                <mxCell id="57" value="subreddit_id" style="text;html=1;strokeColor=none;fillColor=none;align=left;verticalAlign=middle;whiteSpace=wrap;rounded=0;" parent="55" vertex="1">
                    <mxGeometry x="20" y="50" width="70" height="20" as="geometry"/>
                </mxCell>
                <mxCell id="58" value="title" style="text;html=1;strokeColor=none;fillColor=none;align=left;verticalAlign=middle;whiteSpace=wrap;rounded=0;" parent="55" vertex="1">
                    <mxGeometry x="20" y="76" width="80" height="10" as="geometry"/>
                </mxCell>
                <mxCell id="59" value="text" style="text;html=1;strokeColor=none;fillColor=none;align=left;verticalAlign=middle;whiteSpace=wrap;rounded=0;" parent="55" vertex="1">
                    <mxGeometry x="20" y="90" width="60" height="20" as="geometry"/>
                </mxCell>
                <mxCell id="62" value="image_video" style="text;html=1;strokeColor=none;fillColor=none;align=left;verticalAlign=middle;whiteSpace=wrap;rounded=0;" parent="55" vertex="1">
                    <mxGeometry x="20" y="110" width="90" height="20" as="geometry"/>
                </mxCell>
                <mxCell id="63" value="link" style="text;html=1;strokeColor=none;fillColor=none;align=left;verticalAlign=middle;whiteSpace=wrap;rounded=0;" parent="55" vertex="1">
                    <mxGeometry x="20" y="130" width="70" height="20" as="geometry"/>
                </mxCell>
                <mxCell id="64" value="user_id" style="text;html=1;strokeColor=none;fillColor=none;align=left;verticalAlign=middle;whiteSpace=wrap;rounded=0;" parent="55" vertex="1">
                    <mxGeometry x="20" y="150" width="80" height="20" as="geometry"/>
                </mxCell>
                <mxCell id="65" value="create_date" style="text;html=1;strokeColor=none;fillColor=none;align=left;verticalAlign=middle;whiteSpace=wrap;rounded=0;" parent="55" vertex="1">
                    <mxGeometry x="20" y="170" width="80" height="20" as="geometry"/>
                </mxCell>
                <mxCell id="66" value="upvotes" style="text;html=1;strokeColor=none;fillColor=none;align=left;verticalAlign=middle;whiteSpace=wrap;rounded=0;" parent="55" vertex="1">
                    <mxGeometry x="20" y="190" width="80" height="20" as="geometry"/>
                </mxCell>
                <mxCell id="84" value="type" style="text;html=1;strokeColor=none;fillColor=none;align=left;verticalAlign=middle;whiteSpace=wrap;rounded=0;" parent="55" vertex="1">
                    <mxGeometry x="20" y="210" width="80" height="20" as="geometry"/>
                </mxCell>
                <mxCell id="68" value="comments" style="swimlane;" parent="1" vertex="1">
                    <mxGeometry x="360" y="370" width="120" height="180" as="geometry">
                        <mxRectangle x="530" y="330" width="90" height="23" as="alternateBounds"/>
                    </mxGeometry>
                </mxCell>
                <mxCell id="69" value="id" style="text;html=1;strokeColor=none;fillColor=none;align=left;verticalAlign=middle;whiteSpace=wrap;rounded=0;" parent="68" vertex="1">
                    <mxGeometry x="20" y="30" width="40" height="20" as="geometry"/>
                </mxCell>
                <mxCell id="70" value="post_id" style="text;html=1;strokeColor=none;fillColor=none;align=left;verticalAlign=middle;whiteSpace=wrap;rounded=0;" parent="68" vertex="1">
                    <mxGeometry x="20" y="50" width="70" height="20" as="geometry"/>
                </mxCell>
                <mxCell id="71" value="user_id" style="text;html=1;strokeColor=none;fillColor=none;align=left;verticalAlign=middle;whiteSpace=wrap;rounded=0;" parent="68" vertex="1">
                    <mxGeometry x="20" y="70" width="60" height="20" as="geometry"/>
                </mxCell>
                <mxCell id="72" value="create_date" style="text;html=1;strokeColor=none;fillColor=none;align=left;verticalAlign=middle;whiteSpace=wrap;rounded=0;" parent="68" vertex="1">
                    <mxGeometry x="20" y="90" width="80" height="20" as="geometry"/>
                </mxCell>
                <mxCell id="73" value="comment" style="text;html=1;strokeColor=none;fillColor=none;align=left;verticalAlign=middle;whiteSpace=wrap;rounded=0;" parent="68" vertex="1">
                    <mxGeometry x="20" y="110" width="70" height="20" as="geometry"/>
                </mxCell>
                <mxCell id="75" value="parent_id" style="text;html=1;strokeColor=none;fillColor=none;align=left;verticalAlign=middle;whiteSpace=wrap;rounded=0;" parent="68" vertex="1">
                    <mxGeometry x="20" y="130" width="70" height="20" as="geometry"/>
                </mxCell>
                <mxCell id="86" value="upvotes" style="text;html=1;strokeColor=none;fillColor=none;align=left;verticalAlign=middle;whiteSpace=wrap;rounded=0;" parent="68" vertex="1">
                    <mxGeometry x="20" y="150" width="70" height="20" as="geometry"/>
                </mxCell>
                <mxCell id="76" value="upvote_downvotes" style="swimlane;startSize=23;" parent="1" vertex="1">
                    <mxGeometry x="590" y="380" width="160" height="170" as="geometry">
                        <mxRectangle x="530" y="330" width="90" height="23" as="alternateBounds"/>
                    </mxGeometry>
                </mxCell>
                <mxCell id="77" value="id" style="text;html=1;strokeColor=none;fillColor=none;align=left;verticalAlign=middle;whiteSpace=wrap;rounded=0;" parent="76" vertex="1">
                    <mxGeometry x="20" y="30" width="40" height="20" as="geometry"/>
                </mxCell>
                <mxCell id="78" value="post_id" style="text;html=1;strokeColor=none;fillColor=none;align=left;verticalAlign=middle;whiteSpace=wrap;rounded=0;" parent="76" vertex="1">
                    <mxGeometry x="20" y="50" width="70" height="20" as="geometry"/>
                </mxCell>
                <mxCell id="79" value="user_id" style="text;html=1;strokeColor=none;fillColor=none;align=left;verticalAlign=middle;whiteSpace=wrap;rounded=0;" parent="76" vertex="1">
                    <mxGeometry x="20" y="90" width="60" height="20" as="geometry"/>
                </mxCell>
                <mxCell id="80" value="create_date" style="text;html=1;strokeColor=none;fillColor=none;align=left;verticalAlign=middle;whiteSpace=wrap;rounded=0;" parent="76" vertex="1">
                    <mxGeometry x="20" y="110" width="80" height="20" as="geometry"/>
                </mxCell>
                <mxCell id="81" value="upvotes" style="text;html=1;strokeColor=none;fillColor=none;align=left;verticalAlign=middle;whiteSpace=wrap;rounded=0;" parent="76" vertex="1">
                    <mxGeometry x="20" y="130" width="70" height="20" as="geometry"/>
                </mxCell>
                <mxCell id="85" value="comment_id" style="text;html=1;strokeColor=none;fillColor=none;align=left;verticalAlign=middle;whiteSpace=wrap;rounded=0;" parent="76" vertex="1">
                    <mxGeometry x="20" y="70" width="70" height="20" as="geometry"/>
                </mxCell>
            </root>
        </mxGraphModel>
    </diagram>
</mxfile>